<?xml version="1.0" encoding="UTF-8"?>
<svg xmlns="http://www.w3.org/2000/svg" width="64px" viewBox="0 0 61.5 61.5">
    <title>ParkHere</title>
    <desc></desc>
    <g fill="#fff" fill-rule="evenodd">
        <path d="M0 44.16c.113-.004.225-.01.338-.01h60.824c.113 0 .225.006.338.01V61.5H0V44.16zM39.615.262c-.443-.101-.893-.175-1.34-.262h-7.551c-.003.043-.008.086-.008.13v16.997c0 .084.011.167.017.249h3.758v-6.327c.186 0 .37.002.552.005.42.005.83.011 1.239-.015.414-.026.62.143.803.494.966 1.861 1.956 3.709 2.932 5.564.115.217.267.322.513.32 1.197-.008 2.394-.01 3.591-.016.09 0 .181-.007.306-.013L40.5 10.454c.024-.035.03-.055.044-.062.068-.038.137-.074.207-.108.758-.373 1.42-.865 1.914-1.562.777-1.094 1.026-2.336.975-3.648-.04-1.056-.27-2.065-.91-2.936-.775-1.056-1.872-1.592-3.114-1.876zm-4.168 7.783c-.308-.005-.618-.01-.931-.01v-5.12c.75.028 1.485.049 2.218.086.45.023.901.051 1.347.112 1.118.152 1.777.87 1.86 1.999.119 1.632-.848 2.803-2.485 2.911-.664.044-1.33.033-2.009.022zM0 22.08h3.748v6.726h6.288v-6.71h3.775V39.46h-3.757v-7.29H3.78v7.301H0V22.08zM61.5 17.393c-1.284.003-2.568.004-3.851.01-.23.001-.333-.144-.433-.316-1.327-2.295-2.657-4.589-3.986-6.882-.048-.082-.098-.162-.16-.266-.054.059-.102.103-.14.153-.593.78-1.183 1.563-1.779 2.34-.166.217-.235.45-.234.724.007 1.31.003 2.618.003 3.928v.294h-3.793V0h3.802l-.008 6.95c0 .035-.003.07.004.104.037.175.135.185.26.086.046-.037.076-.094.111-.143C52.94 4.738 54.582 2.48 56.223.22c.05-.068.082-.147.122-.221h4.166l-4.923 6.51c-.301.398-.304.396-.052.82 1.453 2.44 2.903 4.883 4.36 7.322.527.883 1.069 1.758 1.604 2.637v.104zM24.813 6.128c-.637-2.041-1.267-4.085-1.9-6.128h-4.687c-.04.15-.076.303-.123.451-1.601 5.116-3.204 10.23-4.806 15.346-.164.524-.323 1.05-.488 1.587h3.843l1.072-4.13c.059-.01.084-.017.11-.017h1.314c1.306 0 2.612 0 3.918-.005.161 0 .206.071.24.204.107.437.222.873.335 1.309l.682 2.633h4.002c-.026-.093-.044-.167-.067-.24-1.148-3.67-2.299-7.34-3.445-11.01zm-2.84 2.164l.499 1.977h-3.968c.121-.455.245-.885.35-1.32.472-1.925.939-3.853 1.407-5.78.004-.016.003-.036.012-.05.062-.102.127-.203.19-.305.067.096.169.184.196.29.444 1.728.878 3.458 1.314 5.188zM61.5 39.472c-.399.003-.798.009-1.197.009H50.431V22.097c.068-.008.141-.025.215-.025h10.776c.026 0 .052.005.078.008v3.124c-.104.003-.208.008-.312.008H54.233v3.742h6.2v3.142h-6.19v4.243h1.531l5.726.009v3.124zM8.916.262C8.481.162 8.041.087 7.603 0H0v17.393h3.767v-5.945h.728c.536.002 1.062.003 1.589-.001.964-.009 1.922-.076 2.852-.36 1.309-.4 2.459-1.041 3.245-2.204.748-1.106 1-2.352.934-3.663-.054-1.078-.292-2.113-.954-3.003C11.348 1.124 10.211.56 8.916.262zM7.24 8.349c-1.136.094-2.28.085-3.448.121-.008-.163-.015-.24-.015-.317V6.836c.001-1.19.002-2.382-.005-3.574-.002-.23.065-.298.294-.29 1.047.042 2.097.036 3.142.11.974.068 1.762.483 2.07 1.49.268.873.18 1.738-.22 2.553-.366.745-1.022 1.158-1.818 1.224zM33.512 39.465h3.779v-6.337l.569.002c.455.003.902.005 1.349-.007.29-.008.456.098.591.356.994 1.895 2.002 3.783 3 5.676.111.21.242.343.497.34 1.197-.009 2.394-.01 3.592-.014.099 0 .197-.01.334-.016l-3.934-6.942c.024-.03.032-.048.046-.055.069-.036.14-.07.21-.104 1.425-.697 2.349-1.803 2.718-3.354a6.782 6.782 0 00-.039-3.297c-.331-1.29-1.114-2.23-2.302-2.836-1.04-.531-2.153-.772-3.31-.784-1.65-.017-3.302-.018-4.954-.02l-1.865-.001c-.063 0-.126.004-.19.01l-.091.005v17.378zm3.843-9.271a1.168 1.168 0 00-.047-.008V25.04c.412.018.823.01 1.233.002.771-.014 1.538-.03 2.3.129 1.611.333 2.073 1.393 1.834 2.845-.208 1.26-.981 1.945-2.343 2.062-.965.084-1.938.086-2.907.123a.325.325 0 01-.07-.008zM22.285 36.33h7.27v3.125H18.512V22.102h11.053v3.088H22.3v3.727h6.186v3.153h-6.202v4.26z" />
    </g>
</svg>
